# xmcd
#
# Track frame offsets: 
#        150
#        15827
#        27385
#        47053
#        66153
#        82392
#        102085
#        118108
#        134352
#        148722
#        162814
#        176176
#        197559
#        215453
#        231890
#
# Disc length: 3311 seconds
#
# Revision: 0
# Processed by: cddbd v1.5.2PL0 Copyright (c) Steve Scherf et al.
# Submitted via: ExactAudioCopy v1.0b1
#
DISCID=d40ced0f
DTITLE=Année 80 compil  - Année 80 compil CD 1
DYEAR=2010
DGENRE=Country
TTITLE0=Images - Les démons de minuit
TTITLE1=Lio - Banana split
TTITLE2=Desireless - Voyage, voyage
TTITLE3=Début de soirée - Nuit de folie
TTITLE4=Rose laurens- Africa
TTITLE5=Jean-Pierre François - Je te survivrai
TTITLE6=Cookie Dingler - Femme libérée
TTITLE7=Jean Shultheis - Confidences pour confidences
TTITLE8=Philippe Lavil - Il tape sur des bambous
TTITLE9=Pierre Groscolas - Lady Lay
TTITLE10=Plastic Bertrand - Ca plane pour moi
TTITLE11=Jakie Quartz - Mise au point
TTITLE12=Herbert Léonard - Pour le Plaisir
TTITLE13=Jean-Luc Lahaye - Femme que j'aime
TTITLE14=Peter and Sloane - Besoin de rien, envie de toi
EXTD=
EXTT0=
EXTT1=
EXTT2=
EXTT3=
EXTT4=
EXTT5=
EXTT6=
EXTT7=
EXTT8=
EXTT9=
EXTT10=
EXTT11=
EXTT12=
EXTT13=
EXTT14=
PLAYORDER=
